<?xml version="1.0" encoding="utf-8" standalone="no"?>
<!DOCTYPE svg PUBLIC "-//W3C//DTD SVG 1.1//EN"
  "http://www.w3.org/Graphics/SVG/1.1/DTD/svg11.dtd">
<svg xmlns:xlink="http://www.w3.org/1999/xlink" width="672.00px" height="410.00px" viewBox="0 0 483.84 295.2" xmlns="http://www.w3.org/2000/svg" version="1.1">
 <metadata>
  <rdf:RDF xmlns:dc="http://purl.org/dc/elements/1.1/" xmlns:cc="http://creativecommons.org/ns#" xmlns:rdf="http://www.w3.org/1999/02/22-rdf-syntax-ns#">
   <cc:Work>
    <dc:type rdf:resource="http://purl.org/dc/dcmitype/StillImage"/>
    <dc:format>image/svg+xml</dc:format>
    <dc:creator>
     <cc:Agent>
      <dc:title>Matplotlib v3.11.2, https://matplotlib.org/</dc:title>
     </cc:Agent>
    </dc:creator>
   </cc:Work>
  </rdf:RDF>
 </metadata>
 <defs>
  <style type="text/css">*{stroke-linejoin: round; stroke-linecap: butt}</style>
 </defs>
 <g id="figure_1">
  <g id="patch_1">
   <path d="M 0 295.2 
L 483.84 295.2 
L 483.84 0 
L 0 0 
L 0 295.2 
z
" style="fill: none"/>
  </g>
  <g id="axes_1">
   <g id="patch_2">
    <path d="M 53.896719 255.58 
L 479.52 255.58 
L 479.52 4.32 
L 53.896719 4.32 
L 53.896719 255.58 
z
" style="fill: none"/>
   </g>
   <g id="line2d_1">
    <path d="M 53.896719 129.95 
L 479.52 129.95 
" clip-path="url(#p71fee232f1)" style="fill: none; stroke: #d9cdb8; stroke-width: 0.8; stroke-linecap: round"/>
   </g>
   <g id="matplotlib.axis_1">
    <g id="xtick_1">
     <g id="line2d_2">
      <defs>
       <path id="m0b80eff20c" d="M 0 0 
L 0 3.5 
" style="stroke: #756f67; stroke-width: 0.8"/>
      </defs>
      <g>
       <use xlink:href="#m0b80eff20c" x="57.385434" y="255.58" style="fill: #756f67; stroke: #756f67; stroke-width: 0.8"/>
      </g>
     </g>
     <g id="text_1">
      <!-- −3 -->
      <g style="fill: #56534d" transform="translate(51.894731 271.624) scale(0.095 -0.095)">
       <defs>
        <path id="HelveticaNeue-f2" d="M 307 1837 
L 307 1402 
L 3533 1402 
L 3533 1837 
L 307 1837 
z
" transform="scale(0.015625)"/>
        <path id="HelveticaNeue-1a" d="M 1395 2592 
L 1395 2131 
Q 1549 2150 1722 2150 
Q 1926 2150 2102 2096 
Q 2278 2042 2406 1930 
Q 2534 1818 2611 1654 
Q 2688 1491 2688 1280 
Q 2688 1075 2608 912 
Q 2528 749 2393 637 
Q 2259 525 2080 464 
Q 1901 403 1702 403 
Q 1235 403 992 681 
Q 749 960 736 1402 
L 192 1402 
Q 186 1050 291 774 
Q 397 499 595 310 
Q 794 122 1075 26 
Q 1357 -70 1702 -70 
Q 2022 -70 2307 16 
Q 2592 102 2803 275 
Q 3014 448 3139 707 
Q 3264 966 3264 1306 
Q 3264 1715 3062 2016 
Q 2861 2317 2445 2406 
L 2445 2419 
Q 2714 2541 2893 2777 
Q 3072 3014 3072 3322 
Q 3072 3635 2966 3865 
Q 2861 4096 2675 4243 
Q 2490 4390 2237 4464 
Q 1984 4538 1690 4538 
Q 1350 4538 1091 4429 
Q 832 4320 659 4128 
Q 486 3936 393 3667 
Q 301 3398 288 3072 
L 832 3072 
Q 832 3270 883 3449 
Q 934 3629 1040 3763 
Q 1146 3898 1309 3978 
Q 1472 4058 1690 4058 
Q 2035 4058 2265 3875 
Q 2496 3693 2496 3328 
Q 2496 3149 2425 3008 
Q 2355 2867 2236 2774 
Q 2118 2682 1961 2634 
Q 1805 2586 1632 2586 
L 1517 2586 
Q 1485 2586 1453 2586 
Q 1427 2586 1395 2592 
z
" transform="scale(0.015625)"/>
       </defs>
       <use xlink:href="#HelveticaNeue-f2"/>
       <use xlink:href="#HelveticaNeue-1a" transform="translate(60 0)"/>
      </g>
     </g>
    </g>
    <g id="xtick_2">
     <g id="line2d_3">
      <g>
       <use xlink:href="#m0b80eff20c" x="127.159743" y="255.58" style="fill: #756f67; stroke: #756f67; stroke-width: 0.8"/>
      </g>
     </g>
     <g id="text_2">
      <!-- −2 -->
      <g style="fill: #56534d" transform="translate(121.669039 271.624) scale(0.095 -0.095)">
       <defs>
        <path id="HelveticaNeue-19" d="M 282 2931 
L 826 2931 
Q 819 3136 867 3337 
Q 915 3539 1024 3699 
Q 1133 3859 1302 3958 
Q 1472 4058 1709 4058 
Q 1888 4058 2048 4000 
Q 2208 3942 2326 3833 
Q 2445 3725 2515 3574 
Q 2586 3424 2586 3238 
Q 2586 3002 2512 2822 
Q 2438 2643 2294 2489 
Q 2150 2336 1932 2185 
Q 1715 2035 1427 1856 
Q 1190 1715 972 1555 
Q 755 1395 582 1184 
Q 410 973 298 688 
Q 186 403 154 0 
L 3117 0 
L 3117 480 
L 787 480 
Q 826 691 950 854 
Q 1075 1018 1251 1158 
Q 1427 1299 1638 1424 
Q 1850 1549 2061 1677 
Q 2272 1811 2470 1958 
Q 2669 2106 2822 2288 
Q 2976 2470 3069 2700 
Q 3162 2931 3162 3232 
Q 3162 3552 3050 3795 
Q 2938 4038 2746 4201 
Q 2554 4365 2294 4451 
Q 2035 4538 1741 4538 
Q 1382 4538 1100 4416 
Q 819 4294 630 4080 
Q 442 3866 352 3571 
Q 262 3277 282 2931 
z
" transform="scale(0.015625)"/>
       </defs>
       <use xlink:href="#HelveticaNeue-f2"/>
       <use xlink:href="#HelveticaNeue-19" transform="translate(60 0)"/>
      </g>
     </g>
    </g>
    <g id="xtick_3">
     <g id="line2d_4">
      <g>
       <use xlink:href="#m0b80eff20c" x="196.934051" y="255.58" style="fill: #756f67; stroke: #756f67; stroke-width: 0.8"/>
      </g>
     </g>
     <g id="text_3">
      <!-- −1 -->
      <g style="fill: #56534d" transform="translate(191.443348 271.624) scale(0.095 -0.095)">
       <defs>
        <path id="HelveticaNeue-18" d="M 2278 0 
L 2278 4538 
L 1862 4538 
Q 1818 4282 1696 4115 
Q 1574 3949 1398 3853 
Q 1222 3757 1004 3721 
Q 787 3686 557 3686 
L 557 3251 
L 1734 3251 
L 1734 0 
L 2278 0 
z
" transform="scale(0.015625)"/>
       </defs>
       <use xlink:href="#HelveticaNeue-f2"/>
       <use xlink:href="#HelveticaNeue-18" transform="translate(60 0)"/>
      </g>
     </g>
    </g>
    <g id="xtick_4">
     <g id="line2d_5">
      <g>
       <use xlink:href="#m0b80eff20c" x="266.708359" y="255.58" style="fill: #756f67; stroke: #756f67; stroke-width: 0.8"/>
      </g>
     </g>
     <g id="text_4">
      <!-- 0 -->
      <g style="fill: #56534d" transform="translate(264.067656 271.624) scale(0.095 -0.095)">
       <defs>
        <path id="HelveticaNeue-17" d="M 845 2234 
Q 845 2400 848 2601 
Q 851 2803 880 3004 
Q 909 3206 963 3398 
Q 1018 3590 1123 3734 
Q 1229 3878 1389 3968 
Q 1549 4058 1779 4058 
Q 2010 4058 2170 3968 
Q 2330 3878 2435 3734 
Q 2541 3590 2595 3398 
Q 2650 3206 2678 3004 
Q 2707 2803 2710 2601 
Q 2714 2400 2714 2234 
Q 2714 1978 2698 1661 
Q 2682 1344 2595 1065 
Q 2509 787 2317 595 
Q 2125 403 1779 403 
Q 1434 403 1242 595 
Q 1050 787 963 1065 
Q 877 1344 861 1661 
Q 845 1978 845 2234 
z
M 269 2227 
Q 269 1978 281 1709 
Q 294 1440 345 1184 
Q 397 928 493 701 
Q 589 474 755 301 
Q 922 128 1174 29 
Q 1427 -70 1779 -70 
Q 2138 -70 2387 29 
Q 2637 128 2803 301 
Q 2970 474 3066 701 
Q 3162 928 3213 1184 
Q 3264 1440 3277 1709 
Q 3290 1978 3290 2227 
Q 3290 2477 3277 2745 
Q 3264 3014 3213 3270 
Q 3162 3526 3066 3756 
Q 2970 3987 2803 4160 
Q 2637 4333 2384 4435 
Q 2131 4538 1779 4538 
Q 1427 4538 1174 4435 
Q 922 4333 755 4160 
Q 589 3987 493 3756 
Q 397 3526 345 3270 
Q 294 3014 281 2745 
Q 269 2477 269 2227 
z
" transform="scale(0.015625)"/>
       </defs>
       <use xlink:href="#HelveticaNeue-17"/>
      </g>
     </g>
    </g>
    <g id="xtick_5">
     <g id="line2d_6">
      <g>
       <use xlink:href="#m0b80eff20c" x="336.482668" y="255.58" style="fill: #756f67; stroke: #756f67; stroke-width: 0.8"/>
      </g>
     </g>
     <g id="text_5">
      <!-- 1 -->
      <g style="fill: #56534d" transform="translate(333.841965 271.624) scale(0.095 -0.095)">
       <use xlink:href="#HelveticaNeue-18"/>
      </g>
     </g>
    </g>
    <g id="xtick_6">
     <g id="line2d_7">
      <g>
       <use xlink:href="#m0b80eff20c" x="406.256976" y="255.58" style="fill: #756f67; stroke: #756f67; stroke-width: 0.8"/>
      </g>
     </g>
     <g id="text_6">
      <!-- 2 -->
      <g style="fill: #56534d" transform="translate(403.616273 271.624) scale(0.095 -0.095)">
       <use xlink:href="#HelveticaNeue-19"/>
      </g>
     </g>
    </g>
    <g id="xtick_7">
     <g id="line2d_8">
      <g>
       <use xlink:href="#m0b80eff20c" x="476.031285" y="255.58" style="fill: #756f67; stroke: #756f67; stroke-width: 0.8"/>
      </g>
     </g>
     <g id="text_7">
      <!-- 3 -->
      <g style="fill: #56534d" transform="translate(473.390581 271.624) scale(0.095 -0.095)">
       <use xlink:href="#HelveticaNeue-1a"/>
      </g>
     </g>
    </g>
    <g id="text_8">
     <!-- normalized margin  m = z / spread -->
     <g style="fill: #56534d" transform="translate(186.694258 288.6435) scale(0.105 -0.105)">
      <defs>
       <path id="HelveticaNeue-55" d="M 410 3309 
L 410 0 
L 954 0 
L 954 1869 
Q 954 2093 1014 2281 
Q 1075 2470 1196 2611 
Q 1318 2752 1500 2829 
Q 1683 2906 1933 2906 
Q 2246 2906 2425 2726 
Q 2605 2547 2605 2240 
L 2605 0 
L 3149 0 
L 3149 2176 
Q 3149 2445 3094 2665 
Q 3040 2886 2905 3046 
Q 2771 3206 2553 3296 
Q 2336 3386 2010 3386 
Q 1274 3386 934 2784 
L 922 2784 
L 922 3309 
L 410 3309 
z
" transform="scale(0.015625)"/>
       <path id="HelveticaNeue-56" d="M 806 1651 
Q 806 1952 886 2185 
Q 966 2419 1107 2579 
Q 1248 2739 1437 2822 
Q 1626 2906 1837 2906 
Q 2048 2906 2237 2822 
Q 2426 2739 2566 2579 
Q 2707 2419 2787 2185 
Q 2867 1952 2867 1651 
Q 2867 1350 2787 1116 
Q 2707 883 2566 726 
Q 2426 570 2237 486 
Q 2048 403 1837 403 
Q 1626 403 1437 486 
Q 1248 570 1107 726 
Q 966 883 886 1116 
Q 806 1350 806 1651 
z
M 230 1651 
Q 230 1286 332 972 
Q 435 659 640 425 
Q 845 192 1145 61 
Q 1446 -70 1837 -70 
Q 2234 -70 2531 61 
Q 2829 192 3033 425 
Q 3238 659 3340 972 
Q 3443 1286 3443 1651 
Q 3443 2016 3340 2333 
Q 3238 2650 3033 2883 
Q 2829 3117 2531 3251 
Q 2234 3386 1837 3386 
Q 1446 3386 1145 3251 
Q 845 3117 640 2883 
Q 435 2650 332 2333 
Q 230 2016 230 1651 
z
" transform="scale(0.015625)"/>
       <path id="HelveticaNeue-59" d="M 390 3309 
L 390 0 
L 934 0 
L 934 1472 
Q 934 1792 998 2038 
Q 1062 2285 1203 2457 
Q 1344 2630 1574 2720 
Q 1805 2810 2131 2810 
L 2131 3386 
Q 1690 3398 1402 3206 
Q 1114 3014 915 2611 
L 902 2611 
L 902 3309 
L 390 3309 
z
" transform="scale(0.015625)"/>
       <path id="HelveticaNeue-54" d="M 410 3309 
L 410 0 
L 954 0 
L 954 2061 
Q 954 2157 1002 2301 
Q 1050 2445 1155 2579 
Q 1261 2714 1430 2810 
Q 1600 2906 1837 2906 
Q 2022 2906 2140 2851 
Q 2259 2797 2329 2697 
Q 2400 2598 2429 2464 
Q 2458 2330 2458 2170 
L 2458 0 
L 3002 0 
L 3002 2061 
Q 3002 2445 3232 2675 
Q 3462 2906 3866 2906 
Q 4064 2906 4189 2848 
Q 4314 2790 4384 2691 
Q 4454 2592 4480 2457 
Q 4506 2323 4506 2170 
L 4506 0 
L 5050 0 
L 5050 2426 
Q 5050 2682 4970 2864 
Q 4890 3046 4746 3161 
Q 4602 3277 4400 3331 
Q 4198 3386 3949 3386 
Q 3622 3386 3350 3238 
Q 3078 3091 2912 2822 
Q 2810 3130 2560 3258 
Q 2310 3386 2003 3386 
Q 1306 3386 934 2822 
L 922 2822 
L 922 3309 
L 410 3309 
z
" transform="scale(0.015625)"/>
       <path id="HelveticaNeue-48" d="M 3341 13 
Q 3200 -70 2950 -70 
Q 2739 -70 2614 48 
Q 2490 166 2490 435 
Q 2266 166 1968 48 
Q 1670 -70 1325 -70 
Q 1101 -70 899 -19 
Q 698 32 550 141 
Q 403 250 316 426 
Q 230 602 230 851 
Q 230 1133 326 1312 
Q 422 1491 579 1603 
Q 736 1715 937 1772 
Q 1139 1830 1350 1869 
Q 1574 1914 1776 1936 
Q 1978 1958 2131 2000 
Q 2285 2042 2374 2122 
Q 2464 2202 2464 2355 
Q 2464 2534 2397 2643 
Q 2330 2752 2224 2809 
Q 2118 2867 1987 2886 
Q 1856 2906 1728 2906 
Q 1382 2906 1152 2774 
Q 922 2643 902 2278 
L 358 2278 
Q 371 2586 486 2797 
Q 602 3008 794 3139 
Q 986 3270 1232 3328 
Q 1478 3386 1760 3386 
Q 1984 3386 2205 3354 
Q 2426 3322 2605 3222 
Q 2784 3123 2893 2944 
Q 3002 2765 3002 2477 
L 3002 774 
Q 3002 582 3024 492 
Q 3046 403 3174 403 
Q 3245 403 3341 435 
L 3341 13 
z
M 2458 1709 
Q 2355 1632 2188 1597 
Q 2022 1562 1840 1539 
Q 1658 1517 1472 1488 
Q 1286 1459 1139 1395 
Q 992 1331 899 1212 
Q 806 1094 806 890 
Q 806 755 860 662 
Q 915 570 1001 512 
Q 1088 454 1203 428 
Q 1318 403 1446 403 
Q 1715 403 1907 476 
Q 2099 550 2220 662 
Q 2342 774 2400 905 
Q 2458 1037 2458 1152 
L 2458 1709 
z
" transform="scale(0.015625)"/>
       <path id="HelveticaNeue-53" d="M 442 4570 
L 442 0 
L 986 0 
L 986 4570 
L 442 4570 
z
" transform="scale(0.015625)"/>
       <path id="HelveticaNeue-50" d="M 986 3904 
L 986 4570 
L 442 4570 
L 442 3904 
L 986 3904 
z
M 442 3309 
L 442 0 
L 986 0 
L 986 3309 
L 442 3309 
z
" transform="scale(0.015625)"/>
       <path id="HelveticaNeue-61" d="M 141 416 
L 141 0 
L 2931 0 
L 2931 480 
L 819 480 
L 2842 2938 
L 2842 3309 
L 269 3309 
L 269 2829 
L 2138 2829 
L 141 416 
z
" transform="scale(0.015625)"/>
       <path id="HelveticaNeue-4c" d="M 2707 1971 
L 806 1971 
Q 819 2163 889 2332 
Q 960 2502 1081 2630 
Q 1203 2758 1372 2832 
Q 1542 2906 1754 2906 
Q 1958 2906 2128 2832 
Q 2298 2758 2422 2633 
Q 2547 2509 2620 2336 
Q 2694 2163 2707 1971 
z
M 3232 1050 
L 2694 1050 
Q 2624 723 2403 563 
Q 2182 403 1837 403 
Q 1568 403 1369 492 
Q 1171 582 1043 732 
Q 915 883 857 1078 
Q 800 1274 806 1491 
L 3283 1491 
Q 3296 1792 3229 2125 
Q 3162 2458 2986 2739 
Q 2810 3021 2518 3203 
Q 2227 3386 1786 3386 
Q 1446 3386 1161 3258 
Q 877 3130 669 2899 
Q 461 2669 345 2355 
Q 230 2042 230 1664 
Q 243 1286 342 966 
Q 442 646 640 416 
Q 838 186 1129 58 
Q 1421 -70 1818 -70 
Q 2381 -70 2752 211 
Q 3123 493 3232 1050 
z
" transform="scale(0.015625)"/>
       <path id="HelveticaNeue-4b" d="M 806 1626 
Q 806 1869 857 2099 
Q 909 2330 1024 2509 
Q 1139 2688 1331 2797 
Q 1523 2906 1798 2906 
Q 2080 2906 2278 2800 
Q 2477 2694 2601 2521 
Q 2726 2349 2784 2121 
Q 2842 1894 2842 1651 
Q 2842 1421 2787 1197 
Q 2733 973 2611 797 
Q 2490 621 2298 512 
Q 2106 403 1830 403 
Q 1568 403 1373 505 
Q 1178 608 1053 781 
Q 928 954 867 1174 
Q 806 1395 806 1626 
z
M 3366 0 
L 3366 4570 
L 2822 4570 
L 2822 2867 
L 2810 2867 
Q 2720 3014 2589 3113 
Q 2458 3213 2310 3273 
Q 2163 3334 2016 3360 
Q 1869 3386 1741 3386 
Q 1363 3386 1078 3248 
Q 794 3110 605 2876 
Q 416 2643 323 2329 
Q 230 2016 230 1664 
Q 230 1312 326 998 
Q 422 685 611 448 
Q 800 211 1085 70 
Q 1370 -70 1754 -70 
Q 2099 -70 2387 51 
Q 2675 173 2810 448 
L 2822 448 
L 2822 0 
L 3366 0 
z
" transform="scale(0.015625)"/>
       <path id="HelveticaNeue-3" transform="scale(0.015625)"/>
       <path id="HelveticaNeue-4e" d="M 3264 282 
L 3264 3309 
L 2752 3309 
L 2752 2835 
L 2746 2835 
Q 2598 3110 2336 3248 
Q 2074 3386 1760 3386 
Q 1331 3386 1036 3222 
Q 742 3059 563 2806 
Q 384 2554 307 2243 
Q 230 1933 230 1638 
Q 230 1299 323 995 
Q 416 691 601 464 
Q 787 237 1062 102 
Q 1338 -32 1709 -32 
Q 2029 -32 2313 112 
Q 2598 256 2739 563 
L 2752 563 
L 2752 346 
Q 2752 70 2697 -160 
Q 2643 -390 2521 -553 
Q 2400 -717 2214 -809 
Q 2029 -902 1760 -902 
Q 1626 -902 1478 -873 
Q 1331 -845 1206 -781 
Q 1082 -717 995 -614 
Q 909 -512 902 -365 
L 358 -365 
Q 371 -634 499 -819 
Q 627 -1005 822 -1120 
Q 1018 -1235 1258 -1286 
Q 1498 -1338 1728 -1338 
Q 2522 -1338 2893 -934 
Q 3264 -531 3264 282 
z
M 1741 442 
Q 1472 442 1293 554 
Q 1114 666 1005 848 
Q 896 1030 851 1254 
Q 806 1478 806 1702 
Q 806 1939 860 2156 
Q 915 2374 1033 2540 
Q 1152 2707 1337 2806 
Q 1523 2906 1786 2906 
Q 2042 2906 2221 2803 
Q 2400 2701 2512 2531 
Q 2624 2362 2675 2150 
Q 2726 1939 2726 1722 
Q 2726 1491 2672 1260 
Q 2618 1030 2502 848 
Q 2387 666 2198 554 
Q 2010 442 1741 442 
z
" transform="scale(0.015625)"/>
       <path id="HelveticaNeue-24" d="M 307 1190 
L 307 755 
L 3533 755 
L 3533 1190 
L 307 1190 
z
M 3533 2048 
L 3533 2483 
L 307 2483 
L 307 2048 
L 3533 2048 
z
" transform="scale(0.015625)"/>
       <path id="HelveticaNeue-16" d="M 1779 4678 
L -109 -102 
L 352 -102 
L 2246 4678 
L 1779 4678 
z
" transform="scale(0.015625)"/>
       <path id="HelveticaNeue-5a" d="M 742 1043 
L 198 1043 
Q 211 736 326 521 
Q 442 307 634 176 
Q 826 45 1075 -12 
Q 1325 -70 1600 -70 
Q 1850 -70 2102 -22 
Q 2355 26 2556 147 
Q 2758 269 2883 467 
Q 3008 666 3008 966 
Q 3008 1203 2915 1363 
Q 2822 1523 2672 1628 
Q 2522 1734 2326 1798 
Q 2131 1862 1926 1907 
Q 1734 1952 1542 1993 
Q 1350 2035 1196 2096 
Q 1043 2157 944 2249 
Q 845 2342 845 2483 
Q 845 2611 909 2691 
Q 973 2771 1075 2819 
Q 1178 2867 1302 2886 
Q 1427 2906 1549 2906 
Q 1683 2906 1814 2877 
Q 1946 2848 2054 2784 
Q 2163 2720 2233 2614 
Q 2304 2509 2317 2349 
L 2861 2349 
Q 2842 2650 2733 2851 
Q 2624 3053 2441 3171 
Q 2259 3290 2022 3338 
Q 1786 3386 1504 3386 
Q 1286 3386 1065 3331 
Q 845 3277 669 3165 
Q 493 3053 381 2873 
Q 269 2694 269 2445 
Q 269 2125 429 1945 
Q 589 1766 829 1667 
Q 1069 1568 1350 1513 
Q 1632 1459 1872 1392 
Q 2112 1325 2272 1216 
Q 2432 1107 2432 896 
Q 2432 742 2355 643 
Q 2278 544 2160 493 
Q 2042 442 1901 422 
Q 1760 403 1632 403 
Q 1466 403 1309 435 
Q 1152 467 1027 540 
Q 902 614 825 739 
Q 749 864 742 1043 
z
" transform="scale(0.015625)"/>
       <path id="HelveticaNeue-57" d="M 429 3309 
L 429 -1261 
L 973 -1261 
L 973 442 
L 986 442 
Q 1075 294 1206 195 
Q 1338 96 1485 38 
Q 1632 -19 1782 -44 
Q 1933 -70 2054 -70 
Q 2432 -70 2717 64 
Q 3002 198 3190 432 
Q 3379 666 3472 979 
Q 3565 1293 3565 1645 
Q 3565 1997 3469 2310 
Q 3373 2624 3184 2864 
Q 2995 3104 2710 3245 
Q 2426 3386 2042 3386 
Q 1696 3386 1408 3261 
Q 1120 3136 986 2861 
L 973 2861 
L 973 3309 
L 429 3309 
z
M 2989 1683 
Q 2989 1440 2937 1209 
Q 2886 979 2771 800 
Q 2656 621 2467 512 
Q 2278 403 1997 403 
Q 1715 403 1516 508 
Q 1318 614 1193 787 
Q 1069 960 1011 1187 
Q 954 1414 954 1658 
Q 954 1888 1008 2112 
Q 1062 2336 1184 2512 
Q 1306 2688 1498 2797 
Q 1690 2906 1965 2906 
Q 2227 2906 2422 2803 
Q 2618 2701 2742 2528 
Q 2867 2355 2928 2134 
Q 2989 1914 2989 1683 
z
" transform="scale(0.015625)"/>
      </defs>
      <use xlink:href="#HelveticaNeue-55"/>
      <use xlink:href="#HelveticaNeue-56" transform="translate(55.59375 0)"/>
      <use xlink:href="#HelveticaNeue-59" transform="translate(113 0)"/>
      <use xlink:href="#HelveticaNeue-54" transform="translate(146.296875 0)"/>
      <use xlink:href="#HelveticaNeue-48" transform="translate(231.59375 0)"/>
      <use xlink:href="#HelveticaNeue-53" transform="translate(285.296875 0)"/>
      <use xlink:href="#HelveticaNeue-50" transform="translate(307.5 0)"/>
      <use xlink:href="#HelveticaNeue-61" transform="translate(329.703125 0)"/>
      <use xlink:href="#HelveticaNeue-4c" transform="translate(377.703125 0)"/>
      <use xlink:href="#HelveticaNeue-4b" transform="translate(431.40625 0)"/>
      <use xlink:href="#HelveticaNeue-3" transform="translate(490.703125 0)"/>
      <use xlink:href="#HelveticaNeue-54" transform="translate(518.5 0)"/>
      <use xlink:href="#HelveticaNeue-48" transform="translate(603.796875 0)"/>
      <use xlink:href="#HelveticaNeue-59" transform="translate(657.5 0)"/>
      <use xlink:href="#HelveticaNeue-4e" transform="translate(688 0)"/>
      <use xlink:href="#HelveticaNeue-50" transform="translate(745.40625 0)"/>
      <use xlink:href="#HelveticaNeue-55" transform="translate(767.609375 0)"/>
      <use xlink:href="#HelveticaNeue-3" transform="translate(823.203125 0)"/>
      <use xlink:href="#HelveticaNeue-3" transform="translate(851 0)"/>
      <use xlink:href="#HelveticaNeue-54" transform="translate(878.796875 0)"/>
      <use xlink:href="#HelveticaNeue-3" transform="translate(964.09375 0)"/>
      <use xlink:href="#HelveticaNeue-24" transform="translate(991.890625 0)"/>
      <use xlink:href="#HelveticaNeue-3" transform="translate(1051.890625 0)"/>
      <use xlink:href="#HelveticaNeue-61" transform="translate(1079.6875 0)"/>
      <use xlink:href="#HelveticaNeue-3" transform="translate(1127.6875 0)"/>
      <use xlink:href="#HelveticaNeue-16" transform="translate(1155.484375 0)"/>
      <use xlink:href="#HelveticaNeue-3" transform="translate(1188.78125 0)"/>
      <use xlink:href="#HelveticaNeue-5a" transform="translate(1216.578125 0)"/>
      <use xlink:href="#HelveticaNeue-57" transform="translate(1266.578125 0)"/>
      <use xlink:href="#HelveticaNeue-59" transform="translate(1325.875 0)"/>
      <use xlink:href="#HelveticaNeue-4c" transform="translate(1357.375 0)"/>
      <use xlink:href="#HelveticaNeue-48" transform="translate(1411.078125 0)"/>
      <use xlink:href="#HelveticaNeue-4b" transform="translate(1464.78125 0)"/>
     </g>
    </g>
   </g>
   <g id="matplotlib.axis_2">
    <g id="ytick_1">
     <g id="line2d_9">
      <path d="M 53.896719 248.468868 
L 479.52 248.468868 
" clip-path="url(#p71fee232f1)" style="fill: none; stroke: #efe5d2; stroke-width: 0.8; stroke-linecap: round"/>
     </g>
     <g id="line2d_10">
      <defs>
       <path id="m0bdeb2da86" d="M 0 0 
L -3.5 0 
" style="stroke: #756f67; stroke-width: 0.8"/>
      </defs>
      <g>
       <use xlink:href="#m0bdeb2da86" x="53.896719" y="248.468868" style="fill: #756f67; stroke: #756f67; stroke-width: 0.8"/>
      </g>
     </g>
     <g id="text_9">
      <!-- 0% -->
      <g style="fill: #56534d" transform="translate(32.115313 252.990868) scale(0.095 -0.095)">
       <defs>
        <path id="HelveticaNeue-c" d="M 1069 3251 
Q 1069 3398 1088 3561 
Q 1107 3725 1168 3862 
Q 1229 4000 1337 4093 
Q 1446 4186 1626 4186 
Q 1811 4186 1916 4093 
Q 2022 4000 2080 3862 
Q 2138 3725 2154 3561 
Q 2170 3398 2170 3258 
Q 2170 3110 2150 2944 
Q 2131 2778 2070 2640 
Q 2010 2502 1901 2412 
Q 1792 2323 1606 2323 
Q 1427 2323 1321 2416 
Q 1216 2509 1158 2646 
Q 1101 2784 1085 2947 
Q 1069 3110 1069 3251 
z
M 589 3238 
Q 589 2976 643 2745 
Q 698 2515 819 2342 
Q 941 2170 1139 2070 
Q 1338 1971 1626 1971 
Q 1907 1971 2099 2080 
Q 2291 2189 2416 2365 
Q 2541 2541 2595 2774 
Q 2650 3008 2650 3258 
Q 2650 3520 2602 3753 
Q 2554 3987 2435 4160 
Q 2317 4333 2121 4435 
Q 1926 4538 1626 4538 
Q 1331 4538 1132 4432 
Q 934 4326 812 4147 
Q 691 3968 640 3734 
Q 589 3501 589 3238 
z
M 4230 1203 
Q 4230 1350 4249 1513 
Q 4269 1677 4329 1814 
Q 4390 1952 4499 2045 
Q 4608 2138 4787 2138 
Q 4973 2138 5078 2045 
Q 5184 1952 5241 1814 
Q 5299 1677 5315 1513 
Q 5331 1350 5331 1210 
Q 5331 1062 5312 896 
Q 5293 730 5232 592 
Q 5171 454 5062 364 
Q 4954 275 4768 275 
Q 4589 275 4483 368 
Q 4378 461 4320 598 
Q 4262 736 4246 899 
Q 4230 1062 4230 1203 
z
M 3750 1190 
Q 3750 928 3804 697 
Q 3859 467 3980 297 
Q 4102 128 4300 29 
Q 4499 -70 4787 -70 
Q 5069 -70 5261 35 
Q 5453 141 5577 317 
Q 5702 493 5756 726 
Q 5811 960 5811 1210 
Q 5811 1472 5763 1705 
Q 5715 1939 5596 2112 
Q 5478 2285 5283 2387 
Q 5088 2490 4787 2490 
Q 4493 2490 4294 2384 
Q 4096 2278 3974 2099 
Q 3853 1920 3801 1686 
Q 3750 1453 3750 1190 
z
M 4646 4621 
L 1203 -134 
L 1754 -134 
L 5190 4621 
L 4646 4621 
z
" transform="scale(0.015625)"/>
       </defs>
       <use xlink:href="#HelveticaNeue-17"/>
       <use xlink:href="#HelveticaNeue-c" transform="translate(55.59375 0)"/>
      </g>
     </g>
    </g>
    <g id="ytick_2">
     <g id="line2d_11">
      <path d="M 53.896719 201.061321 
L 479.52 201.061321 
" clip-path="url(#p71fee232f1)" style="fill: none; stroke: #efe5d2; stroke-width: 0.8; stroke-linecap: round"/>
     </g>
     <g id="line2d_12">
      <g>
       <use xlink:href="#m0bdeb2da86" x="53.896719" y="201.061321" style="fill: #756f67; stroke: #756f67; stroke-width: 0.8"/>
      </g>
     </g>
     <g id="text_10">
      <!-- 20% -->
      <g style="fill: #56534d" transform="translate(26.833906 205.583321) scale(0.095 -0.095)">
       <use xlink:href="#HelveticaNeue-19"/>
       <use xlink:href="#HelveticaNeue-17" transform="translate(55.59375 0)"/>
       <use xlink:href="#HelveticaNeue-c" transform="translate(111.1875 0)"/>
      </g>
     </g>
    </g>
    <g id="ytick_3">
     <g id="line2d_13">
      <path d="M 53.896719 153.653774 
L 479.52 153.653774 
" clip-path="url(#p71fee232f1)" style="fill: none; stroke: #efe5d2; stroke-width: 0.8; stroke-linecap: round"/>
     </g>
     <g id="line2d_14">
      <g>
       <use xlink:href="#m0bdeb2da86" x="53.896719" y="153.653774" style="fill: #756f67; stroke: #756f67; stroke-width: 0.8"/>
      </g>
     </g>
     <g id="text_11">
      <!-- 40% -->
      <g style="fill: #56534d" transform="translate(26.833906 158.175774) scale(0.095 -0.095)">
       <defs>
        <path id="HelveticaNeue-1b" d="M 2170 1542 
L 646 1542 
L 2157 3763 
L 2170 3763 
L 2170 1542 
z
M 2682 1542 
L 2682 4538 
L 2246 4538 
L 179 1587 
L 179 1062 
L 2170 1062 
L 2170 0 
L 2682 0 
L 2682 1062 
L 3296 1062 
L 3296 1542 
L 2682 1542 
z
" transform="scale(0.015625)"/>
       </defs>
       <use xlink:href="#HelveticaNeue-1b"/>
       <use xlink:href="#HelveticaNeue-17" transform="translate(55.59375 0)"/>
       <use xlink:href="#HelveticaNeue-c" transform="translate(111.1875 0)"/>
      </g>
     </g>
    </g>
    <g id="ytick_4">
     <g id="line2d_15">
      <path d="M 53.896719 106.246226 
L 479.52 106.246226 
" clip-path="url(#p71fee232f1)" style="fill: none; stroke: #efe5d2; stroke-width: 0.8; stroke-linecap: round"/>
     </g>
     <g id="line2d_16">
      <g>
       <use xlink:href="#m0bdeb2da86" x="53.896719" y="106.246226" style="fill: #756f67; stroke: #756f67; stroke-width: 0.8"/>
      </g>
     </g>
     <g id="text_12">
      <!-- 60% -->
      <g style="fill: #56534d" transform="translate(26.833906 110.768226) scale(0.095 -0.095)">
       <defs>
        <path id="HelveticaNeue-1d" d="M 2650 3379 
L 3194 3379 
Q 3142 3942 2809 4240 
Q 2477 4538 1914 4538 
Q 1427 4538 1107 4333 
Q 787 4128 595 3789 
Q 403 3450 323 3011 
Q 243 2573 243 2106 
Q 243 1747 297 1363 
Q 352 979 518 659 
Q 685 339 992 134 
Q 1299 -70 1805 -70 
Q 2234 -70 2525 74 
Q 2816 218 2992 438 
Q 3168 659 3245 928 
Q 3322 1197 3322 1446 
Q 3322 1760 3226 2029 
Q 3130 2298 2954 2496 
Q 2778 2694 2518 2806 
Q 2259 2918 1933 2918 
Q 1562 2918 1277 2777 
Q 992 2637 800 2323 
L 787 2336 
Q 794 2598 838 2899 
Q 883 3200 1001 3459 
Q 1120 3718 1331 3888 
Q 1542 4058 1888 4058 
Q 2214 4058 2412 3872 
Q 2611 3686 2650 3379 
z
M 1830 2438 
Q 2061 2438 2233 2355 
Q 2406 2272 2521 2134 
Q 2637 1997 2691 1808 
Q 2746 1619 2746 1408 
Q 2746 1210 2685 1027 
Q 2624 845 2509 704 
Q 2394 563 2224 483 
Q 2054 403 1830 403 
Q 1606 403 1430 483 
Q 1254 563 1136 697 
Q 1018 832 954 1017 
Q 890 1203 890 1414 
Q 890 1626 950 1814 
Q 1011 2003 1132 2140 
Q 1254 2278 1427 2358 
Q 1600 2438 1830 2438 
z
" transform="scale(0.015625)"/>
       </defs>
       <use xlink:href="#HelveticaNeue-1d"/>
       <use xlink:href="#HelveticaNeue-17" transform="translate(55.59375 0)"/>
       <use xlink:href="#HelveticaNeue-c" transform="translate(111.1875 0)"/>
      </g>
     </g>
    </g>
    <g id="ytick_5">
     <g id="line2d_17">
      <path d="M 53.896719 58.838679 
L 479.52 58.838679 
" clip-path="url(#p71fee232f1)" style="fill: none; stroke: #efe5d2; stroke-width: 0.8; stroke-linecap: round"/>
     </g>
     <g id="line2d_18">
      <g>
       <use xlink:href="#m0bdeb2da86" x="53.896719" y="58.838679" style="fill: #756f67; stroke: #756f67; stroke-width: 0.8"/>
      </g>
     </g>
     <g id="text_13">
      <!-- 80% -->
      <g style="fill: #56534d" transform="translate(26.833906 63.360679) scale(0.095 -0.095)">
       <defs>
        <path id="HelveticaNeue-1f" d="M 992 3360 
Q 992 3533 1056 3661 
Q 1120 3789 1225 3878 
Q 1331 3968 1478 4013 
Q 1626 4058 1786 4058 
Q 2118 4058 2332 3882 
Q 2547 3706 2547 3360 
Q 2547 3014 2336 2822 
Q 2125 2630 1798 2630 
Q 1632 2630 1485 2675 
Q 1338 2720 1229 2809 
Q 1120 2899 1056 3036 
Q 992 3174 992 3360 
z
M 416 3379 
Q 416 3072 589 2813 
Q 762 2554 1050 2438 
Q 666 2304 461 2006 
Q 256 1709 256 1306 
Q 256 960 374 701 
Q 493 442 701 269 
Q 909 96 1190 13 
Q 1472 -70 1798 -70 
Q 2112 -70 2387 19 
Q 2662 109 2864 285 
Q 3066 461 3184 717 
Q 3302 973 3302 1306 
Q 3302 1728 3104 2019 
Q 2906 2310 2496 2438 
Q 2784 2566 2953 2819 
Q 3123 3072 3123 3379 
Q 3123 3597 3046 3805 
Q 2970 4013 2806 4176 
Q 2643 4339 2380 4438 
Q 2118 4538 1747 4538 
Q 1485 4538 1245 4461 
Q 1005 4384 819 4237 
Q 634 4090 525 3875 
Q 416 3661 416 3379 
z
M 832 1280 
Q 832 1478 905 1638 
Q 979 1798 1110 1913 
Q 1242 2029 1418 2089 
Q 1594 2150 1792 2150 
Q 1984 2150 2153 2083 
Q 2323 2016 2451 1901 
Q 2579 1786 2652 1629 
Q 2726 1472 2726 1286 
Q 2726 1094 2659 934 
Q 2592 774 2467 656 
Q 2342 538 2172 470 
Q 2003 403 1798 403 
Q 1376 403 1104 636 
Q 832 870 832 1280 
z
" transform="scale(0.015625)"/>
       </defs>
       <use xlink:href="#HelveticaNeue-1f"/>
       <use xlink:href="#HelveticaNeue-17" transform="translate(55.59375 0)"/>
       <use xlink:href="#HelveticaNeue-c" transform="translate(111.1875 0)"/>
      </g>
     </g>
    </g>
    <g id="ytick_6">
     <g id="line2d_19">
      <path d="M 53.896719 11.431132 
L 479.52 11.431132 
" clip-path="url(#p71fee232f1)" style="fill: none; stroke: #efe5d2; stroke-width: 0.8; stroke-linecap: round"/>
     </g>
     <g id="line2d_20">
      <g>
       <use xlink:href="#m0bdeb2da86" x="53.896719" y="11.431132" style="fill: #756f67; stroke: #756f67; stroke-width: 0.8"/>
      </g>
     </g>
     <g id="text_14">
      <!-- 100% -->
      <g style="fill: #56534d" transform="translate(21.5525 15.953132) scale(0.095 -0.095)">
       <use xlink:href="#HelveticaNeue-18"/>
       <use xlink:href="#HelveticaNeue-17" transform="translate(55.59375 0)"/>
       <use xlink:href="#HelveticaNeue-17" transform="translate(111.1875 0)"/>
       <use xlink:href="#HelveticaNeue-c" transform="translate(166.78125 0)"/>
      </g>
     </g>
    </g>
    <g id="text_15">
     <!-- share of calls where Jev said fire -->
     <g style="fill: #56534d" transform="translate(14.316 205.980664) rotate(-90) scale(0.105 -0.105)">
      <defs>
       <path id="HelveticaNeue-4f" d="M 410 4570 
L 410 0 
L 954 0 
L 954 1869 
Q 954 2093 1014 2281 
Q 1075 2470 1196 2611 
Q 1318 2752 1500 2829 
Q 1683 2906 1933 2906 
Q 2246 2906 2425 2726 
Q 2605 2547 2605 2240 
L 2605 0 
L 3149 0 
L 3149 2176 
Q 3149 2445 3094 2665 
Q 3040 2886 2905 3046 
Q 2771 3206 2553 3296 
Q 2336 3386 2010 3386 
Q 1862 3386 1705 3354 
Q 1549 3322 1405 3254 
Q 1261 3187 1145 3081 
Q 1030 2976 966 2822 
L 954 2822 
L 954 4570 
L 410 4570 
z
" transform="scale(0.015625)"/>
       <path id="HelveticaNeue-4d" d="M 634 2829 
L 634 0 
L 1178 0 
L 1178 2829 
L 1818 2829 
L 1818 3309 
L 1178 3309 
L 1178 3770 
Q 1178 3987 1286 4064 
Q 1395 4141 1594 4141 
Q 1664 4141 1747 4131 
Q 1830 4122 1901 4096 
L 1901 4570 
Q 1824 4595 1725 4608 
Q 1626 4621 1549 4621 
Q 1101 4621 867 4413 
Q 634 4205 634 3802 
L 634 3309 
L 77 3309 
L 77 2829 
L 634 2829 
z
" transform="scale(0.015625)"/>
       <path id="HelveticaNeue-4a" d="M 2656 2246 
L 3219 2246 
Q 3187 2541 3065 2755 
Q 2944 2970 2755 3110 
Q 2566 3251 2320 3318 
Q 2074 3386 1792 3386 
Q 1402 3386 1107 3248 
Q 813 3110 617 2870 
Q 422 2630 326 2307 
Q 230 1984 230 1613 
Q 230 1242 329 931 
Q 429 621 624 397 
Q 819 173 1110 51 
Q 1402 -70 1779 -70 
Q 2413 -70 2781 262 
Q 3149 595 3238 1210 
L 2682 1210 
Q 2630 826 2403 614 
Q 2176 403 1773 403 
Q 1517 403 1331 505 
Q 1146 608 1030 777 
Q 915 947 860 1164 
Q 806 1382 806 1613 
Q 806 1862 857 2096 
Q 909 2330 1027 2509 
Q 1146 2688 1344 2797 
Q 1542 2906 1837 2906 
Q 2182 2906 2387 2733 
Q 2592 2560 2656 2246 
z
" transform="scale(0.015625)"/>
       <path id="HelveticaNeue-5e" d="M 3686 0 
L 4742 3309 
L 4179 3309 
L 3437 602 
L 3424 602 
L 2733 3309 
L 2138 3309 
L 1472 602 
L 1459 602 
L 710 3309 
L 109 3309 
L 1171 0 
L 1760 0 
L 2426 2630 
L 2438 2630 
L 3110 0 
L 3686 0 
z
" transform="scale(0.015625)"/>
       <path id="HelveticaNeue-31" d="M 2822 1139 
L 2822 4570 
L 2214 4570 
L 2214 1229 
Q 2214 851 2057 627 
Q 1901 403 1485 403 
Q 1261 403 1117 470 
Q 973 538 893 659 
Q 813 781 781 947 
Q 749 1114 749 1312 
L 749 1504 
L 141 1504 
L 141 1222 
Q 141 570 486 234 
Q 832 -102 1472 -102 
Q 1856 -102 2115 3 
Q 2374 109 2531 285 
Q 2688 461 2755 685 
Q 2822 909 2822 1139 
z
" transform="scale(0.015625)"/>
       <path id="HelveticaNeue-5d" d="M 1901 0 
L 3110 3309 
L 2541 3309 
L 1638 550 
L 1626 550 
L 698 3309 
L 90 3309 
L 1318 0 
L 1901 0 
z
" transform="scale(0.015625)"/>
       <path id="HelveticaNeue-c4" d="M 2336 0 
L 2880 0 
L 2880 3309 
L 2336 3309 
L 2336 0 
z
M 2336 3904 
L 2880 3904 
L 2880 4570 
L 2336 4570 
L 2336 3904 
z
M 634 2829 
L 634 0 
L 1178 0 
L 1178 2829 
L 1818 2829 
L 1818 3309 
L 1178 3309 
L 1178 3770 
Q 1178 3987 1286 4064 
Q 1395 4141 1594 4141 
Q 1664 4141 1747 4131 
Q 1830 4122 1901 4096 
L 1901 4570 
Q 1824 4595 1725 4608 
Q 1626 4621 1549 4621 
Q 1101 4621 867 4413 
Q 634 4205 634 3802 
L 634 3309 
L 77 3309 
L 77 2829 
L 634 2829 
z
" transform="scale(0.015625)"/>
      </defs>
      <use xlink:href="#HelveticaNeue-5a"/>
      <use xlink:href="#HelveticaNeue-4f" transform="translate(50 0)"/>
      <use xlink:href="#HelveticaNeue-48" transform="translate(105.59375 0)"/>
      <use xlink:href="#HelveticaNeue-59" transform="translate(159.296875 0)"/>
      <use xlink:href="#HelveticaNeue-4c" transform="translate(190.796875 0)"/>
      <use xlink:href="#HelveticaNeue-3" transform="translate(244.5 0)"/>
      <use xlink:href="#HelveticaNeue-56" transform="translate(272.296875 0)"/>
      <use xlink:href="#HelveticaNeue-4d" transform="translate(329.703125 0)"/>
      <use xlink:href="#HelveticaNeue-3" transform="translate(359.296875 0)"/>
      <use xlink:href="#HelveticaNeue-4a" transform="translate(387.09375 0)"/>
      <use xlink:href="#HelveticaNeue-48" transform="translate(440.796875 0)"/>
      <use xlink:href="#HelveticaNeue-53" transform="translate(494.5 0)"/>
      <use xlink:href="#HelveticaNeue-53" transform="translate(516.703125 0)"/>
      <use xlink:href="#HelveticaNeue-5a" transform="translate(538.90625 0)"/>
      <use xlink:href="#HelveticaNeue-3" transform="translate(588.90625 0)"/>
      <use xlink:href="#HelveticaNeue-5e" transform="translate(616.703125 0)"/>
      <use xlink:href="#HelveticaNeue-4f" transform="translate(692.5 0)"/>
      <use xlink:href="#HelveticaNeue-4c" transform="translate(748.09375 0)"/>
      <use xlink:href="#HelveticaNeue-59" transform="translate(801.796875 0)"/>
      <use xlink:href="#HelveticaNeue-4c" transform="translate(833.296875 0)"/>
      <use xlink:href="#HelveticaNeue-3" transform="translate(887 0)"/>
      <use xlink:href="#HelveticaNeue-31" transform="translate(914.796875 0)"/>
      <use xlink:href="#HelveticaNeue-4c" transform="translate(966.703125 0)"/>
      <use xlink:href="#HelveticaNeue-5d" transform="translate(1020.40625 0)"/>
      <use xlink:href="#HelveticaNeue-3" transform="translate(1070.40625 0)"/>
      <use xlink:href="#HelveticaNeue-5a" transform="translate(1098.203125 0)"/>
      <use xlink:href="#HelveticaNeue-48" transform="translate(1148.203125 0)"/>
      <use xlink:href="#HelveticaNeue-50" transform="translate(1201.90625 0)"/>
      <use xlink:href="#HelveticaNeue-4b" transform="translate(1224.109375 0)"/>
      <use xlink:href="#HelveticaNeue-3" transform="translate(1283.40625 0)"/>
      <use xlink:href="#HelveticaNeue-c4" transform="translate(1311.203125 0)"/>
      <use xlink:href="#HelveticaNeue-59" transform="translate(1363 0)"/>
      <use xlink:href="#HelveticaNeue-4c" transform="translate(1394.5 0)"/>
     </g>
    </g>
   </g>
   <g id="line2d_21">
    <path d="M 57.385434 248.468868 
L 266.708359 248.468868 
L 266.708359 11.431132 
L 476.031285 11.431132 
" clip-path="url(#p71fee232f1)" style="fill: none; stroke-dasharray: 4.4,3.3; stroke-dashoffset: 0; stroke: #d9480f; stroke-width: 1.1"/>
   </g>
   <g id="line2d_22">
    <defs>
     <path id="mbe6b57aa45" d="M 0 1.8 
C 0.477366 1.8 0.935244 1.610341 1.272792 1.272792 
C 1.610341 0.935244 1.8 0.477366 1.8 0 
C 1.8 -0.477366 1.610341 -0.935244 1.272792 -1.272792 
C 0.935244 -1.610341 0.477366 -1.8 0 -1.8 
C -0.477366 -1.8 -0.935244 -1.610341 -1.272792 -1.272792 
C -1.610341 -0.935244 -1.8 -0.477366 -1.8 0 
C -1.8 0.477366 -1.610341 0.935244 -1.272792 1.272792 
C -0.935244 1.610341 -0.477366 1.8 0 1.8 
z
" style="stroke: #7a5c00"/>
    </defs>
    <g clip-path="url(#p71fee232f1)">
     <use xlink:href="#mbe6b57aa45" x="66.107223" y="248.468868" style="fill: #7a5c00; stroke: #7a5c00"/>
     <use xlink:href="#mbe6b57aa45" x="83.5508" y="248.468868" style="fill: #7a5c00; stroke: #7a5c00"/>
     <use xlink:href="#mbe6b57aa45" x="100.994377" y="248.468868" style="fill: #7a5c00; stroke: #7a5c00"/>
     <use xlink:href="#mbe6b57aa45" x="118.437954" y="248.468868" style="fill: #7a5c00; stroke: #7a5c00"/>
     <use xlink:href="#mbe6b57aa45" x="135.881531" y="248.468868" style="fill: #7a5c00; stroke: #7a5c00"/>
     <use xlink:href="#mbe6b57aa45" x="153.325108" y="248.468868" style="fill: #7a5c00; stroke: #7a5c00"/>
     <use xlink:href="#mbe6b57aa45" x="170.768685" y="248.468868" style="fill: #7a5c00; stroke: #7a5c00"/>
     <use xlink:href="#mbe6b57aa45" x="188.212262" y="248.468868" style="fill: #7a5c00; stroke: #7a5c00"/>
     <use xlink:href="#mbe6b57aa45" x="205.65584" y="248.468868" style="fill: #7a5c00; stroke: #7a5c00"/>
     <use xlink:href="#mbe6b57aa45" x="223.099417" y="248.468868" style="fill: #7a5c00; stroke: #7a5c00"/>
     <use xlink:href="#mbe6b57aa45" x="240.542994" y="229.505849" style="fill: #7a5c00; stroke: #7a5c00"/>
     <use xlink:href="#mbe6b57aa45" x="257.986571" y="205.371098" style="fill: #7a5c00; stroke: #7a5c00"/>
     <use xlink:href="#mbe6b57aa45" x="275.430148" y="173.04777" style="fill: #7a5c00; stroke: #7a5c00"/>
     <use xlink:href="#mbe6b57aa45" x="292.873725" y="70.690566" style="fill: #7a5c00; stroke: #7a5c00"/>
     <use xlink:href="#mbe6b57aa45" x="310.317302" y="30.394151" style="fill: #7a5c00; stroke: #7a5c00"/>
     <use xlink:href="#mbe6b57aa45" x="327.760879" y="15.98955" style="fill: #7a5c00; stroke: #7a5c00"/>
     <use xlink:href="#mbe6b57aa45" x="345.204456" y="11.431132" style="fill: #7a5c00; stroke: #7a5c00"/>
     <use xlink:href="#mbe6b57aa45" x="362.648033" y="11.431132" style="fill: #7a5c00; stroke: #7a5c00"/>
     <use xlink:href="#mbe6b57aa45" x="380.091611" y="11.431132" style="fill: #7a5c00; stroke: #7a5c00"/>
     <use xlink:href="#mbe6b57aa45" x="397.535188" y="11.431132" style="fill: #7a5c00; stroke: #7a5c00"/>
     <use xlink:href="#mbe6b57aa45" x="414.978765" y="11.431132" style="fill: #7a5c00; stroke: #7a5c00"/>
     <use xlink:href="#mbe6b57aa45" x="432.422342" y="11.431132" style="fill: #7a5c00; stroke: #7a5c00"/>
     <use xlink:href="#mbe6b57aa45" x="449.865919" y="11.431132" style="fill: #7a5c00; stroke: #7a5c00"/>
     <use xlink:href="#mbe6b57aa45" x="467.309496" y="11.431132" style="fill: #7a5c00; stroke: #7a5c00"/>
    </g>
   </g>
   <g id="line2d_23">
    <defs>
     <path id="mb4c798b280" d="M -1.8 1.8 
L 1.8 1.8 
L 1.8 -1.8 
L -1.8 -1.8 
z
" style="stroke: #2b86c0; stroke-linejoin: miter"/>
    </defs>
    <g clip-path="url(#p71fee232f1)">
     <use xlink:href="#mb4c798b280" x="66.107223" y="248.468868" style="fill: #2b86c0; stroke: #2b86c0; stroke-linejoin: miter"/>
     <use xlink:href="#mb4c798b280" x="83.5508" y="248.468868" style="fill: #2b86c0; stroke: #2b86c0; stroke-linejoin: miter"/>
     <use xlink:href="#mb4c798b280" x="100.994377" y="248.468868" style="fill: #2b86c0; stroke: #2b86c0; stroke-linejoin: miter"/>
     <use xlink:href="#mb4c798b280" x="118.437954" y="248.468868" style="fill: #2b86c0; stroke: #2b86c0; stroke-linejoin: miter"/>
     <use xlink:href="#mb4c798b280" x="135.881531" y="248.468868" style="fill: #2b86c0; stroke: #2b86c0; stroke-linejoin: miter"/>
     <use xlink:href="#mb4c798b280" x="153.325108" y="248.468868" style="fill: #2b86c0; stroke: #2b86c0; stroke-linejoin: miter"/>
     <use xlink:href="#mb4c798b280" x="170.768685" y="248.468868" style="fill: #2b86c0; stroke: #2b86c0; stroke-linejoin: miter"/>
     <use xlink:href="#mb4c798b280" x="188.212262" y="248.468868" style="fill: #2b86c0; stroke: #2b86c0; stroke-linejoin: miter"/>
     <use xlink:href="#mb4c798b280" x="205.65584" y="238.162879" style="fill: #2b86c0; stroke: #2b86c0; stroke-linejoin: miter"/>
     <use xlink:href="#mb4c798b280" x="223.099417" y="248.468868" style="fill: #2b86c0; stroke: #2b86c0; stroke-linejoin: miter"/>
     <use xlink:href="#mb4c798b280" x="240.542994" y="210.54283" style="fill: #2b86c0; stroke: #2b86c0; stroke-linejoin: miter"/>
     <use xlink:href="#mb4c798b280" x="257.986571" y="181.308176" style="fill: #2b86c0; stroke: #2b86c0; stroke-linejoin: miter"/>
     <use xlink:href="#mb4c798b280" x="275.430148" y="145.752516" style="fill: #2b86c0; stroke: #2b86c0; stroke-linejoin: miter"/>
     <use xlink:href="#mb4c798b280" x="292.873725" y="89.209139" style="fill: #2b86c0; stroke: #2b86c0; stroke-linejoin: miter"/>
     <use xlink:href="#mb4c798b280" x="310.317302" y="35.832075" style="fill: #2b86c0; stroke: #2b86c0; stroke-linejoin: miter"/>
     <use xlink:href="#mb4c798b280" x="327.760879" y="23.691705" style="fill: #2b86c0; stroke: #2b86c0; stroke-linejoin: miter"/>
     <use xlink:href="#mb4c798b280" x="345.204456" y="11.431132" style="fill: #2b86c0; stroke: #2b86c0; stroke-linejoin: miter"/>
     <use xlink:href="#mb4c798b280" x="362.648033" y="18.40283" style="fill: #2b86c0; stroke: #2b86c0; stroke-linejoin: miter"/>
     <use xlink:href="#mb4c798b280" x="380.091611" y="11.431132" style="fill: #2b86c0; stroke: #2b86c0; stroke-linejoin: miter"/>
     <use xlink:href="#mb4c798b280" x="397.535188" y="11.431132" style="fill: #2b86c0; stroke: #2b86c0; stroke-linejoin: miter"/>
     <use xlink:href="#mb4c798b280" x="414.978765" y="11.431132" style="fill: #2b86c0; stroke: #2b86c0; stroke-linejoin: miter"/>
     <use xlink:href="#mb4c798b280" x="432.422342" y="11.431132" style="fill: #2b86c0; stroke: #2b86c0; stroke-linejoin: miter"/>
     <use xlink:href="#mb4c798b280" x="449.865919" y="11.431132" style="fill: #2b86c0; stroke: #2b86c0; stroke-linejoin: miter"/>
     <use xlink:href="#mb4c798b280" x="467.309496" y="11.431132" style="fill: #2b86c0; stroke: #2b86c0; stroke-linejoin: miter"/>
    </g>
   </g>
   <g id="line2d_24">
    <defs>
     <path id="m1b569d68cd" d="M -0 2.545584 
L 2.545584 0 
L 0 -2.545584 
L -2.545584 -0 
z
" style="stroke: #009e73; stroke-linejoin: miter"/>
    </defs>
    <g clip-path="url(#p71fee232f1)">
     <use xlink:href="#m1b569d68cd" x="66.107223" y="248.468868" style="fill: #009e73; stroke: #009e73; stroke-linejoin: miter"/>
     <use xlink:href="#m1b569d68cd" x="83.5508" y="248.468868" style="fill: #009e73; stroke: #009e73; stroke-linejoin: miter"/>
     <use xlink:href="#m1b569d68cd" x="100.994377" y="248.468868" style="fill: #009e73; stroke: #009e73; stroke-linejoin: miter"/>
     <use xlink:href="#m1b569d68cd" x="118.437954" y="248.468868" style="fill: #009e73; stroke: #009e73; stroke-linejoin: miter"/>
     <use xlink:href="#m1b569d68cd" x="135.881531" y="248.468868" style="fill: #009e73; stroke: #009e73; stroke-linejoin: miter"/>
     <use xlink:href="#m1b569d68cd" x="153.325108" y="248.468868" style="fill: #009e73; stroke: #009e73; stroke-linejoin: miter"/>
     <use xlink:href="#m1b569d68cd" x="170.768685" y="248.468868" style="fill: #009e73; stroke: #009e73; stroke-linejoin: miter"/>
     <use xlink:href="#m1b569d68cd" x="188.212262" y="216.14554" style="fill: #009e73; stroke: #009e73; stroke-linejoin: miter"/>
     <use xlink:href="#m1b569d68cd" x="205.65584" y="228.715723" style="fill: #009e73; stroke: #009e73; stroke-linejoin: miter"/>
     <use xlink:href="#m1b569d68cd" x="223.099417" y="218.839151" style="fill: #009e73; stroke: #009e73; stroke-linejoin: miter"/>
     <use xlink:href="#m1b569d68cd" x="240.542994" y="176.510984" style="fill: #009e73; stroke: #009e73; stroke-linejoin: miter"/>
     <use xlink:href="#m1b569d68cd" x="257.986571" y="147.508351" style="fill: #009e73; stroke: #009e73; stroke-linejoin: miter"/>
     <use xlink:href="#m1b569d68cd" x="275.430148" y="100.320283" style="fill: #009e73; stroke: #009e73; stroke-linejoin: miter"/>
     <use xlink:href="#m1b569d68cd" x="292.873725" y="39.317925" style="fill: #009e73; stroke: #009e73; stroke-linejoin: miter"/>
     <use xlink:href="#m1b569d68cd" x="310.317302" y="17.074888" style="fill: #009e73; stroke: #009e73; stroke-linejoin: miter"/>
     <use xlink:href="#m1b569d68cd" x="327.760879" y="25.797055" style="fill: #009e73; stroke: #009e73; stroke-linejoin: miter"/>
     <use xlink:href="#m1b569d68cd" x="345.204456" y="11.431132" style="fill: #009e73; stroke: #009e73; stroke-linejoin: miter"/>
     <use xlink:href="#m1b569d68cd" x="362.648033" y="11.431132" style="fill: #009e73; stroke: #009e73; stroke-linejoin: miter"/>
     <use xlink:href="#m1b569d68cd" x="380.091611" y="11.431132" style="fill: #009e73; stroke: #009e73; stroke-linejoin: miter"/>
     <use xlink:href="#m1b569d68cd" x="397.535188" y="11.431132" style="fill: #009e73; stroke: #009e73; stroke-linejoin: miter"/>
     <use xlink:href="#m1b569d68cd" x="414.978765" y="11.431132" style="fill: #009e73; stroke: #009e73; stroke-linejoin: miter"/>
     <use xlink:href="#m1b569d68cd" x="432.422342" y="11.431132" style="fill: #009e73; stroke: #009e73; stroke-linejoin: miter"/>
     <use xlink:href="#m1b569d68cd" x="449.865919" y="11.431132" style="fill: #009e73; stroke: #009e73; stroke-linejoin: miter"/>
     <use xlink:href="#m1b569d68cd" x="467.309496" y="11.431132" style="fill: #009e73; stroke: #009e73; stroke-linejoin: miter"/>
    </g>
   </g>
   <g id="line2d_25">
    <defs>
     <path id="m428820af38" d="M 0 -1.8 
L -1.8 1.8 
L 1.8 1.8 
z
" style="stroke: #a8508a; stroke-linejoin: miter"/>
    </defs>
    <g clip-path="url(#p71fee232f1)">
     <use xlink:href="#m428820af38" x="66.107223" y="248.468868" style="fill: #a8508a; stroke: #a8508a; stroke-linejoin: miter"/>
     <use xlink:href="#m428820af38" x="83.5508" y="248.468868" style="fill: #a8508a; stroke: #a8508a; stroke-linejoin: miter"/>
     <use xlink:href="#m428820af38" x="100.994377" y="248.468868" style="fill: #a8508a; stroke: #a8508a; stroke-linejoin: miter"/>
     <use xlink:href="#m428820af38" x="118.437954" y="248.468868" style="fill: #a8508a; stroke: #a8508a; stroke-linejoin: miter"/>
     <use xlink:href="#m428820af38" x="135.881531" y="248.468868" style="fill: #a8508a; stroke: #a8508a; stroke-linejoin: miter"/>
     <use xlink:href="#m428820af38" x="153.325108" y="248.468868" style="fill: #a8508a; stroke: #a8508a; stroke-linejoin: miter"/>
     <use xlink:href="#m428820af38" x="170.768685" y="211.431722" style="fill: #a8508a; stroke: #a8508a; stroke-linejoin: miter"/>
     <use xlink:href="#m428820af38" x="188.212262" y="202.09192" style="fill: #a8508a; stroke: #a8508a; stroke-linejoin: miter"/>
     <use xlink:href="#m428820af38" x="205.65584" y="195.793816" style="fill: #a8508a; stroke: #a8508a; stroke-linejoin: miter"/>
     <use xlink:href="#m428820af38" x="223.099417" y="119.175557" style="fill: #a8508a; stroke: #a8508a; stroke-linejoin: miter"/>
     <use xlink:href="#m428820af38" x="240.542994" y="100.320283" style="fill: #a8508a; stroke: #a8508a; stroke-linejoin: miter"/>
     <use xlink:href="#m428820af38" x="257.986571" y="64.56028" style="fill: #a8508a; stroke: #a8508a; stroke-linejoin: miter"/>
     <use xlink:href="#m428820af38" x="275.430148" y="59.716597" style="fill: #a8508a; stroke: #a8508a; stroke-linejoin: miter"/>
     <use xlink:href="#m428820af38" x="292.873725" y="11.431132" style="fill: #a8508a; stroke: #a8508a; stroke-linejoin: miter"/>
     <use xlink:href="#m428820af38" x="310.317302" y="11.431132" style="fill: #a8508a; stroke: #a8508a; stroke-linejoin: miter"/>
     <use xlink:href="#m428820af38" x="327.760879" y="11.431132" style="fill: #a8508a; stroke: #a8508a; stroke-linejoin: miter"/>
     <use xlink:href="#m428820af38" x="345.204456" y="11.431132" style="fill: #a8508a; stroke: #a8508a; stroke-linejoin: miter"/>
     <use xlink:href="#m428820af38" x="362.648033" y="11.431132" style="fill: #a8508a; stroke: #a8508a; stroke-linejoin: miter"/>
     <use xlink:href="#m428820af38" x="380.091611" y="11.431132" style="fill: #a8508a; stroke: #a8508a; stroke-linejoin: miter"/>
     <use xlink:href="#m428820af38" x="397.535188" y="11.431132" style="fill: #a8508a; stroke: #a8508a; stroke-linejoin: miter"/>
     <use xlink:href="#m428820af38" x="414.978765" y="11.431132" style="fill: #a8508a; stroke: #a8508a; stroke-linejoin: miter"/>
     <use xlink:href="#m428820af38" x="432.422342" y="11.431132" style="fill: #a8508a; stroke: #a8508a; stroke-linejoin: miter"/>
     <use xlink:href="#m428820af38" x="449.865919" y="11.431132" style="fill: #a8508a; stroke: #a8508a; stroke-linejoin: miter"/>
     <use xlink:href="#m428820af38" x="467.309496" y="11.431132" style="fill: #a8508a; stroke: #a8508a; stroke-linejoin: miter"/>
    </g>
   </g>
   <g id="line2d_26">
    <defs>
     <path id="mbf8982edd8" d="M -0 1.8 
L 1.8 -1.8 
L -1.8 -1.8 
z
" style="stroke: #004f80; stroke-linejoin: miter"/>
    </defs>
    <g clip-path="url(#p71fee232f1)">
     <use xlink:href="#mbf8982edd8" x="66.107223" y="248.468868" style="fill: #004f80; stroke: #004f80; stroke-linejoin: miter"/>
     <use xlink:href="#mbf8982edd8" x="83.5508" y="248.468868" style="fill: #004f80; stroke: #004f80; stroke-linejoin: miter"/>
     <use xlink:href="#mbf8982edd8" x="100.994377" y="238.162879" style="fill: #004f80; stroke: #004f80; stroke-linejoin: miter"/>
     <use xlink:href="#mbf8982edd8" x="118.437954" y="243.081647" style="fill: #004f80; stroke: #004f80; stroke-linejoin: miter"/>
     <use xlink:href="#mbf8982edd8" x="135.881531" y="216.559942" style="fill: #004f80; stroke: #004f80; stroke-linejoin: miter"/>
     <use xlink:href="#mbf8982edd8" x="153.325108" y="166.02096" style="fill: #004f80; stroke: #004f80; stroke-linejoin: miter"/>
     <use xlink:href="#mbf8982edd8" x="170.768685" y="160.535514" style="fill: #004f80; stroke: #004f80; stroke-linejoin: miter"/>
     <use xlink:href="#mbf8982edd8" x="188.212262" y="148.183672" style="fill: #004f80; stroke: #004f80; stroke-linejoin: miter"/>
     <use xlink:href="#mbf8982edd8" x="205.65584" y="125.717183" style="fill: #004f80; stroke: #004f80; stroke-linejoin: miter"/>
     <use xlink:href="#mbf8982edd8" x="223.099417" y="70.690566" style="fill: #004f80; stroke: #004f80; stroke-linejoin: miter"/>
     <use xlink:href="#mbf8982edd8" x="240.542994" y="28.362399" style="fill: #004f80; stroke: #004f80; stroke-linejoin: miter"/>
     <use xlink:href="#mbf8982edd8" x="257.986571" y="32.043109" style="fill: #004f80; stroke: #004f80; stroke-linejoin: miter"/>
     <use xlink:href="#mbf8982edd8" x="275.430148" y="11.431132" style="fill: #004f80; stroke: #004f80; stroke-linejoin: miter"/>
     <use xlink:href="#mbf8982edd8" x="292.873725" y="11.431132" style="fill: #004f80; stroke: #004f80; stroke-linejoin: miter"/>
     <use xlink:href="#mbf8982edd8" x="310.317302" y="11.431132" style="fill: #004f80; stroke: #004f80; stroke-linejoin: miter"/>
     <use xlink:href="#mbf8982edd8" x="327.760879" y="11.431132" style="fill: #004f80; stroke: #004f80; stroke-linejoin: miter"/>
     <use xlink:href="#mbf8982edd8" x="345.204456" y="11.431132" style="fill: #004f80; stroke: #004f80; stroke-linejoin: miter"/>
     <use xlink:href="#mbf8982edd8" x="362.648033" y="11.431132" style="fill: #004f80; stroke: #004f80; stroke-linejoin: miter"/>
     <use xlink:href="#mbf8982edd8" x="380.091611" y="11.431132" style="fill: #004f80; stroke: #004f80; stroke-linejoin: miter"/>
     <use xlink:href="#mbf8982edd8" x="397.535188" y="11.431132" style="fill: #004f80; stroke: #004f80; stroke-linejoin: miter"/>
     <use xlink:href="#mbf8982edd8" x="414.978765" y="11.431132" style="fill: #004f80; stroke: #004f80; stroke-linejoin: miter"/>
     <use xlink:href="#mbf8982edd8" x="432.422342" y="11.431132" style="fill: #004f80; stroke: #004f80; stroke-linejoin: miter"/>
     <use xlink:href="#mbf8982edd8" x="449.865919" y="11.431132" style="fill: #004f80; stroke: #004f80; stroke-linejoin: miter"/>
     <use xlink:href="#mbf8982edd8" x="467.309496" y="11.431132" style="fill: #004f80; stroke: #004f80; stroke-linejoin: miter"/>
    </g>
   </g>
   <g id="patch_3">
    <path d="M 53.896719 255.58 
L 53.896719 4.32 
" style="fill: none; stroke: #756f67; stroke-width: 0.8; stroke-linejoin: miter; stroke-linecap: square"/>
   </g>
   <g id="patch_4">
    <path d="M 53.896719 255.58 
L 479.52 255.58 
" style="fill: none; stroke: #756f67; stroke-width: 0.8; stroke-linejoin: miter; stroke-linecap: square"/>
   </g>
   <g id="text_16">
    <!-- exact neuron -->
    <g style="fill: #c43f0b" transform="translate(272.290304 239.334236) scale(0.095 -0.095)">
     <defs>
      <path id="HelveticaNeue-5f" d="M 1299 1741 
L 58 0 
L 717 0 
L 1638 1370 
L 2560 0 
L 3258 0 
L 1978 1786 
L 3117 3309 
L 2464 3309 
L 1638 2150 
L 845 3309 
L 147 3309 
L 1299 1741 
z
" transform="scale(0.015625)"/>
      <path id="HelveticaNeue-5b" d="M 1165 3309 
L 1165 4301 
L 621 4301 
L 621 3309 
L 58 3309 
L 58 2829 
L 621 2829 
L 621 723 
Q 621 493 665 352 
Q 710 211 803 134 
Q 896 58 1046 29 
Q 1197 0 1408 0 
L 1824 0 
L 1824 480 
L 1574 480 
Q 1446 480 1366 489 
Q 1286 499 1241 531 
Q 1197 563 1181 620 
Q 1165 678 1165 774 
L 1165 2829 
L 1824 2829 
L 1824 3309 
L 1165 3309 
z
" transform="scale(0.015625)"/>
      <path id="HelveticaNeue-5c" d="M 3149 0 
L 3149 3309 
L 2605 3309 
L 2605 1440 
Q 2605 1216 2544 1027 
Q 2483 838 2361 697 
Q 2240 557 2057 480 
Q 1875 403 1626 403 
Q 1312 403 1133 582 
Q 954 762 954 1069 
L 954 3309 
L 410 3309 
L 410 1133 
Q 410 864 464 643 
Q 518 422 652 262 
Q 787 102 1004 16 
Q 1222 -70 1549 -70 
Q 1914 -70 2182 74 
Q 2451 218 2624 525 
L 2637 525 
L 2637 0 
L 3149 0 
z
" transform="scale(0.015625)"/>
     </defs>
     <use xlink:href="#HelveticaNeue-4c"/>
     <use xlink:href="#HelveticaNeue-5f" transform="translate(53.703125 0)"/>
     <use xlink:href="#HelveticaNeue-48" transform="translate(105.5 0)"/>
     <use xlink:href="#HelveticaNeue-4a" transform="translate(159.203125 0)"/>
     <use xlink:href="#HelveticaNeue-5b" transform="translate(212.90625 0)"/>
     <use xlink:href="#HelveticaNeue-3" transform="translate(244.40625 0)"/>
     <use xlink:href="#HelveticaNeue-55" transform="translate(272.203125 0)"/>
     <use xlink:href="#HelveticaNeue-4c" transform="translate(327.796875 0)"/>
     <use xlink:href="#HelveticaNeue-5c" transform="translate(381.5 0)"/>
     <use xlink:href="#HelveticaNeue-59" transform="translate(437.09375 0)"/>
     <use xlink:href="#HelveticaNeue-56" transform="translate(468.59375 0)"/>
     <use xlink:href="#HelveticaNeue-55" transform="translate(526 0)"/>
    </g>
   </g>
   <g id="line2d_27">
    <path d="M 57.385434 248.468868 
L 208.475666 248.358562 
L 215.82033 248.1203 
L 221.066519 247.725566 
L 225.263469 247.157879 
L 228.411183 246.506501 
L 231.558896 245.586445 
L 233.657371 244.782918 
L 235.755847 243.794284 
L 237.854322 242.589104 
L 239.952798 241.133482 
L 242.051273 239.391571 
L 244.149748 237.32627 
L 246.248224 234.900096 
L 248.346699 232.076252 
L 250.445175 228.819834 
L 252.54365 225.099173 
L 254.642126 220.887248 
L 256.740601 216.16312 
L 258.839076 210.913312 
L 260.937552 205.133077 
L 263.036027 198.827449 
L 266.183741 188.421069 
L 269.331454 176.96961 
L 272.479167 164.627572 
L 276.676118 147.145889 
L 289.26697 93.582261 
L 292.414684 81.348158 
L 295.562397 70.028291 
L 298.71011 59.769987 
L 300.808585 53.568536 
L 302.907061 47.894309 
L 305.005536 42.750313 
L 307.104012 38.129962 
L 309.202487 34.01818 
L 311.300962 30.392698 
L 313.399438 27.225452 
L 315.497913 24.484014 
L 317.596389 22.132997 
L 319.694864 20.135374 
L 321.79334 18.453661 
L 323.891815 17.050942 
L 325.990291 15.89171 
L 328.088766 14.942526 
L 330.187241 14.17249 
L 333.334955 13.292782 
L 336.482668 12.671695 
L 340.679619 12.132118 
L 345.925807 11.758451 
L 352.221234 11.553378 
L 363.762849 11.447527 
L 408.88007 11.431133 
L 476.031285 11.431132 
L 476.031285 11.431132 
" clip-path="url(#p71fee232f1)" style="fill: none; stroke: #7a5c00; stroke-width: 2; stroke-linecap: round"/>
   </g>
   <g id="text_17">
    <!-- 10 terms -->
    <g style="fill: #7a5c00" transform="translate(286.942909 133.74) scale(0.1 -0.1)">
     <defs>
      <path id="HelveticaNeue-Medium-14" d="M 339 3738 
Q 570 3738 787 3776 
Q 1005 3814 1181 3904 
Q 1357 3994 1481 4134 
Q 1606 4275 1645 4480 
L 2240 4480 
L 2240 0 
L 1440 0 
L 1440 3162 
L 339 3162 
L 339 3738 
z
" transform="scale(0.015625)"/>
      <path id="HelveticaNeue-Medium-13" d="M 1779 4570 
Q 2259 4570 2563 4349 
Q 2867 4128 3036 3785 
Q 3206 3443 3267 3033 
Q 3328 2624 3328 2240 
Q 3328 1856 3267 1446 
Q 3206 1037 3036 694 
Q 2867 352 2563 131 
Q 2259 -90 1779 -90 
Q 1299 -90 995 131 
Q 691 352 521 694 
Q 352 1037 291 1446 
Q 230 1856 230 2240 
Q 230 2624 291 3033 
Q 352 3443 521 3785 
Q 691 4128 995 4349 
Q 1299 4570 1779 4570 
z
M 1779 518 
Q 2016 518 2176 656 
Q 2336 794 2429 1027 
Q 2522 1261 2560 1574 
Q 2598 1888 2598 2240 
Q 2598 2592 2560 2902 
Q 2522 3213 2429 3449 
Q 2336 3686 2176 3824 
Q 2016 3962 1779 3962 
Q 1536 3962 1379 3824 
Q 1222 3686 1129 3449 
Q 1037 3213 998 2902 
Q 960 2592 960 2240 
Q 960 1888 998 1574 
Q 1037 1261 1129 1027 
Q 1222 794 1379 656 
Q 1536 518 1779 518 
z
" transform="scale(0.015625)"/>
      <path id="HelveticaNeue-Medium-3" transform="scale(0.015625)"/>
      <path id="HelveticaNeue-Medium-57" d="M 51 3309 
L 602 3309 
L 602 4301 
L 1331 4301 
L 1331 3309 
L 1990 3309 
L 1990 2765 
L 1331 2765 
L 1331 998 
Q 1331 883 1340 800 
Q 1350 717 1385 659 
Q 1421 602 1491 573 
Q 1562 544 1683 544 
Q 1760 544 1837 547 
Q 1914 550 1990 570 
L 1990 6 
Q 1869 -6 1753 -19 
Q 1638 -32 1517 -32 
Q 1229 -32 1053 22 
Q 877 77 777 182 
Q 678 288 643 448 
Q 608 608 602 813 
L 602 2765 
L 51 2765 
L 51 3309 
z
" transform="scale(0.015625)"/>
      <path id="HelveticaNeue-Medium-48" d="M 2656 1946 
Q 2643 2118 2582 2278 
Q 2522 2438 2416 2556 
Q 2310 2675 2160 2748 
Q 2010 2822 1824 2822 
Q 1632 2822 1475 2755 
Q 1318 2688 1206 2569 
Q 1094 2451 1027 2291 
Q 960 2131 954 1946 
L 2656 1946 
z
M 954 1466 
Q 954 1274 1008 1094 
Q 1062 915 1171 780 
Q 1280 646 1446 566 
Q 1613 486 1843 486 
Q 2163 486 2358 624 
Q 2554 762 2650 1037 
L 3341 1037 
Q 3283 768 3142 557 
Q 3002 346 2803 202 
Q 2605 58 2358 -16 
Q 2112 -90 1843 -90 
Q 1453 -90 1152 38 
Q 851 166 643 396 
Q 435 627 329 947 
Q 224 1267 224 1651 
Q 224 2003 336 2320 
Q 448 2637 656 2877 
Q 864 3117 1158 3257 
Q 1453 3398 1824 3398 
Q 2214 3398 2524 3235 
Q 2835 3072 3040 2803 
Q 3245 2534 3337 2185 
Q 3430 1837 3386 1466 
L 954 1466 
z
" transform="scale(0.015625)"/>
      <path id="HelveticaNeue-Medium-55" d="M 384 3309 
L 1069 3309 
L 1069 2669 
L 1082 2669 
Q 1114 2803 1206 2931 
Q 1299 3059 1430 3164 
Q 1562 3270 1722 3334 
Q 1882 3398 2048 3398 
Q 2176 3398 2224 3392 
Q 2272 3386 2323 3379 
L 2323 2675 
Q 2246 2688 2166 2697 
Q 2086 2707 2010 2707 
Q 1824 2707 1661 2633 
Q 1498 2560 1376 2416 
Q 1254 2272 1184 2061 
Q 1114 1850 1114 1574 
L 1114 0 
L 384 0 
L 384 3309 
z
" transform="scale(0.015625)"/>
      <path id="HelveticaNeue-Medium-50" d="M 384 3309 
L 1075 3309 
L 1075 2848 
L 1094 2848 
Q 1178 2970 1274 3072 
Q 1370 3174 1488 3244 
Q 1606 3315 1760 3356 
Q 1914 3398 2112 3398 
Q 2413 3398 2672 3264 
Q 2931 3130 3040 2848 
Q 3226 3104 3469 3251 
Q 3712 3398 4077 3398 
Q 4602 3398 4893 3142 
Q 5184 2886 5184 2285 
L 5184 0 
L 4454 0 
L 4454 1933 
Q 4454 2131 4441 2294 
Q 4429 2458 4368 2576 
Q 4307 2694 4185 2758 
Q 4064 2822 3853 2822 
Q 3482 2822 3315 2592 
Q 3149 2362 3149 1939 
L 3149 0 
L 2419 0 
L 2419 2125 
Q 2419 2470 2294 2646 
Q 2170 2822 1837 2822 
Q 1696 2822 1565 2764 
Q 1434 2707 1334 2598 
Q 1235 2490 1174 2330 
Q 1114 2170 1114 1965 
L 1114 0 
L 384 0 
L 384 3309 
z
" transform="scale(0.015625)"/>
      <path id="HelveticaNeue-Medium-56" d="M 934 1062 
Q 966 742 1177 614 
Q 1389 486 1683 486 
Q 1786 486 1917 502 
Q 2048 518 2163 563 
Q 2278 608 2352 694 
Q 2426 781 2419 921 
Q 2413 1062 2317 1152 
Q 2221 1242 2070 1296 
Q 1920 1350 1728 1388 
Q 1536 1427 1338 1472 
Q 1133 1517 944 1581 
Q 755 1645 604 1753 
Q 454 1862 364 2032 
Q 275 2202 275 2451 
Q 275 2720 406 2902 
Q 538 3085 739 3197 
Q 941 3309 1187 3353 
Q 1434 3398 1658 3398 
Q 1914 3398 2147 3344 
Q 2381 3290 2569 3168 
Q 2758 3046 2883 2851 
Q 3008 2656 3040 2381 
L 2278 2381 
Q 2227 2643 2038 2732 
Q 1850 2822 1606 2822 
Q 1530 2822 1424 2809 
Q 1318 2797 1225 2761 
Q 1133 2726 1069 2659 
Q 1005 2592 1005 2483 
Q 1005 2349 1097 2265 
Q 1190 2182 1340 2128 
Q 1491 2074 1683 2035 
Q 1875 1997 2080 1952 
Q 2278 1907 2470 1843 
Q 2662 1779 2812 1670 
Q 2963 1562 3056 1395 
Q 3149 1229 3149 986 
Q 3149 691 3014 486 
Q 2880 282 2665 154 
Q 2451 26 2188 -32 
Q 1926 -90 1670 -90 
Q 1357 -90 1091 -19 
Q 826 51 630 195 
Q 435 339 323 553 
Q 211 768 205 1062 
L 934 1062 
z
" transform="scale(0.015625)"/>
     </defs>
     <use xlink:href="#HelveticaNeue-Medium-14"/>
     <use xlink:href="#HelveticaNeue-Medium-13" transform="translate(55.59375 0)"/>
     <use xlink:href="#HelveticaNeue-Medium-3" transform="translate(111.1875 0)"/>
     <use xlink:href="#HelveticaNeue-Medium-57" transform="translate(138.984375 0)"/>
     <use xlink:href="#HelveticaNeue-Medium-48" transform="translate(172.28125 0)"/>
     <use xlink:href="#HelveticaNeue-Medium-55" transform="translate(227.875 0)"/>
     <use xlink:href="#HelveticaNeue-Medium-50" transform="translate(263.078125 0)"/>
     <use xlink:href="#HelveticaNeue-Medium-56" transform="translate(350.078125 0)"/>
    </g>
   </g>
   <g id="line2d_28">
    <path d="M 57.385434 248.468868 
L 171.752346 248.363693 
L 182.244723 248.141629 
L 189.589387 247.787116 
L 194.835576 247.351583 
L 200.081764 246.683081 
L 204.278715 245.916228 
L 208.475666 244.877237 
L 211.623379 243.876376 
L 214.771092 242.647841 
L 217.918805 241.154609 
L 221.066519 239.357426 
L 224.214232 237.215606 
L 227.361945 234.688058 
L 230.509658 231.734528 
L 232.608133 229.509951 
L 235.755847 225.763851 
L 238.90356 221.499795 
L 242.051273 216.693701 
L 245.198986 211.329722 
L 248.346699 205.40173 
L 251.494412 198.914583 
L 254.642126 191.885065 
L 257.789839 184.342434 
L 261.98679 173.56144 
L 266.183741 162.076209 
L 271.429929 146.985043 
L 289.26697 94.749521 
L 293.463921 83.434351 
L 297.660872 72.861631 
L 300.808585 65.494473 
L 303.956298 58.652102 
L 307.104012 52.359377 
L 310.251725 46.628822 
L 313.399438 41.461327 
L 316.547151 36.847203 
L 319.694864 32.767544 
L 322.842577 29.195768 
L 325.990291 26.099274 
L 329.138004 23.44111 
L 332.285717 21.181575 
L 335.43343 19.279701 
L 338.581143 17.694551 
L 341.728856 16.386321 
L 344.87657 15.317207 
L 348.024283 14.452061 
L 352.221234 13.560888 
L 356.418184 12.909003 
L 361.664373 12.346347 
L 367.959799 11.929312 
L 376.353701 11.640335 
L 388.944554 11.481487 
L 417.273972 11.432316 
L 476.031285 11.431132 
L 476.031285 11.431132 
" clip-path="url(#p71fee232f1)" style="fill: none; stroke: #2b86c0; stroke-width: 2; stroke-linecap: round"/>
   </g>
   <g id="text_18">
    <!-- 30 -->
    <g style="fill: #1a6fa8" transform="translate(233.08355 204.851321) scale(0.1 -0.1)">
     <defs>
      <path id="HelveticaNeue-Medium-16" d="M 1459 2624 
Q 1638 2618 1817 2650 
Q 1997 2682 2137 2762 
Q 2278 2842 2364 2982 
Q 2451 3123 2451 3328 
Q 2451 3616 2256 3789 
Q 2061 3962 1754 3962 
Q 1562 3962 1421 3885 
Q 1280 3808 1187 3677 
Q 1094 3546 1049 3382 
Q 1005 3219 1011 3046 
L 282 3046 
Q 294 3373 403 3651 
Q 512 3930 701 4134 
Q 890 4339 1158 4454 
Q 1427 4570 1766 4570 
Q 2029 4570 2281 4493 
Q 2534 4416 2736 4269 
Q 2938 4122 3059 3894 
Q 3181 3667 3181 3373 
Q 3181 3034 3027 2781 
Q 2874 2528 2547 2413 
L 2547 2400 
Q 2931 2323 3145 2019 
Q 3360 1715 3360 1280 
Q 3360 960 3232 707 
Q 3104 454 2886 278 
Q 2669 102 2381 6 
Q 2093 -90 1773 -90 
Q 1382 -90 1091 22 
Q 800 134 605 339 
Q 410 544 307 832 
Q 205 1120 198 1472 
L 928 1472 
Q 915 1062 1129 790 
Q 1344 518 1773 518 
Q 2138 518 2384 726 
Q 2630 934 2630 1318 
Q 2630 1581 2528 1734 
Q 2426 1888 2259 1968 
Q 2093 2048 1885 2067 
Q 1677 2086 1459 2080 
L 1459 2624 
z
" transform="scale(0.015625)"/>
     </defs>
     <use xlink:href="#HelveticaNeue-Medium-16"/>
     <use xlink:href="#HelveticaNeue-Medium-13" transform="translate(55.59375 0)"/>
    </g>
   </g>
   <g id="line2d_29">
    <path d="M 57.385434 248.468847 
L 130.832075 248.364174 
L 144.472165 248.119787 
L 152.866067 247.777162 
L 160.210731 247.254362 
L 165.456919 246.689371 
L 170.703108 245.904551 
L 174.900059 245.074612 
L 179.09701 244.023019 
L 183.293961 242.706085 
L 186.441674 241.51566 
L 189.589387 240.127813 
L 192.7371 238.520429 
L 195.884813 236.671009 
L 199.032526 234.557087 
L 202.18024 232.156704 
L 205.327953 229.448946 
L 208.475666 226.414517 
L 211.623379 223.036342 
L 214.771092 219.300185 
L 217.918805 215.195254 
L 221.066519 210.714773 
L 224.214232 205.856509 
L 227.361945 200.623211 
L 230.509658 195.022956 
L 234.706609 187.009508 
L 238.90356 178.416504 
L 243.100511 169.309309 
L 248.346699 157.327951 
L 254.642126 142.328675 
L 272.479167 99.402035 
L 277.725355 87.57914 
L 281.922306 78.630858 
L 286.119257 70.219869 
L 290.316208 62.405958 
L 293.463921 56.963373 
L 296.611634 51.891917 
L 299.759348 47.197323 
L 302.907061 42.880132 
L 306.054774 38.936083 
L 309.202487 35.356593 
L 312.3502 32.129303 
L 315.497913 29.238672 
L 318.645627 26.666587 
L 321.79334 24.392979 
L 324.941053 22.396412 
L 328.088766 20.654646 
L 331.236479 19.145143 
L 334.384192 17.845524 
L 338.581143 16.401571 
L 342.778094 15.242797 
L 346.975045 14.323706 
L 352.221234 13.449752 
L 357.467422 12.81667 
L 363.762849 12.293943 
L 371.107513 11.912667 
L 380.550652 11.647784 
L 395.23998 11.487151 
L 426.717112 11.433086 
L 476.031285 11.431135 
L 476.031285 11.431135 
" clip-path="url(#p71fee232f1)" style="fill: none; stroke: #009e73; stroke-width: 2; stroke-linecap: round"/>
   </g>
   <g id="text_19">
    <!-- 75 -->
    <g style="fill: #00805e" transform="translate(225.279915 174.036415) scale(0.1 -0.1)">
     <defs>
      <path id="HelveticaNeue-Medium-1a" d="M 224 4480 
L 3290 4480 
L 3290 3872 
Q 2938 3475 2650 3049 
Q 2362 2624 2147 2147 
Q 1933 1670 1798 1139 
Q 1664 608 1619 0 
L 819 0 
Q 858 531 1002 1049 
Q 1146 1568 1373 2054 
Q 1600 2541 1901 2989 
Q 2202 3437 2547 3827 
L 224 3827 
L 224 4480 
z
" transform="scale(0.015625)"/>
      <path id="HelveticaNeue-Medium-18" d="M 787 4480 
L 3104 4480 
L 3104 3827 
L 1331 3827 
L 1101 2688 
L 1114 2675 
Q 1261 2842 1488 2928 
Q 1715 3014 1939 3014 
Q 2272 3014 2534 2902 
Q 2797 2790 2976 2588 
Q 3155 2387 3248 2112 
Q 3341 1837 3341 1517 
Q 3341 1248 3254 963 
Q 3168 678 2979 444 
Q 2790 211 2496 60 
Q 2202 -90 1792 -90 
Q 1466 -90 1187 -3 
Q 909 83 697 256 
Q 486 429 361 681 
Q 237 934 224 1274 
L 954 1274 
Q 986 909 1203 713 
Q 1421 518 1779 518 
Q 2010 518 2170 595 
Q 2330 672 2429 806 
Q 2528 941 2569 1120 
Q 2611 1299 2611 1504 
Q 2611 1690 2560 1859 
Q 2509 2029 2406 2157 
Q 2304 2285 2141 2361 
Q 1978 2438 1760 2438 
Q 1530 2438 1328 2352 
Q 1126 2266 1037 2029 
L 307 2029 
L 787 4480 
z
" transform="scale(0.015625)"/>
     </defs>
     <use xlink:href="#HelveticaNeue-Medium-1a"/>
     <use xlink:href="#HelveticaNeue-Medium-18" transform="translate(55.59375 0)"/>
    </g>
   </g>
   <g id="line2d_30">
    <path d="M 57.385434 248.467019 
L 97.256468 248.350728 
L 109.84732 248.112012 
L 118.241222 247.762714 
L 125.585886 247.230451 
L 130.832075 246.65585 
L 136.078263 245.85841 
L 140.275214 245.015813 
L 144.472165 243.94896 
L 148.669116 242.613895 
L 151.816829 241.407848 
L 154.964542 240.002558 
L 158.112255 238.375866 
L 161.259968 236.505259 
L 164.407682 234.368293 
L 167.555395 231.943076 
L 170.703108 229.208806 
L 173.850821 226.146348 
L 176.998534 222.738842 
L 180.146247 218.972314 
L 183.293961 214.836286 
L 186.441674 210.324344 
L 189.589387 205.43465 
L 192.7371 200.170388 
L 195.884813 194.540091 
L 200.081764 186.488833 
L 204.278715 177.8616 
L 208.475666 168.724818 
L 213.721854 156.714446 
L 220.017281 141.693979 
L 236.805084 101.226663 
L 242.051273 89.310807 
L 246.248224 80.269821 
L 250.445175 71.753013 
L 254.642126 63.823402 
L 257.789839 58.289568 
L 260.937552 53.124582 
L 264.085265 48.335525 
L 267.232978 43.924204 
L 270.380691 39.887514 
L 273.528405 36.217905 
L 276.676118 32.903908 
L 279.823831 29.93072 
L 282.971544 27.280814 
L 286.119257 24.934553 
L 289.26697 22.870789 
L 292.414684 21.067432 
L 295.562397 19.501974 
L 298.71011 18.151959 
L 301.857823 16.995383 
L 306.054774 15.717681 
L 310.251725 14.699056 
L 314.448676 13.896431 
L 319.694864 13.138798 
L 324.941053 12.594476 
L 331.236479 12.14904 
L 339.630381 11.794321 
L 351.171996 11.563667 
L 370.058275 11.452413 
L 433.012538 11.431141 
L 476.031285 11.431132 
L 476.031285 11.431132 
" clip-path="url(#p71fee232f1)" style="fill: none; stroke: #a8508a; stroke-width: 2; stroke-linecap: round"/>
   </g>
   <g id="text_20">
    <!-- 150 -->
    <g style="fill: #a8508a" transform="translate(198.968238 140.851132) scale(0.1 -0.1)">
     <use xlink:href="#HelveticaNeue-Medium-14"/>
     <use xlink:href="#HelveticaNeue-Medium-18" transform="translate(55.59375 0)"/>
     <use xlink:href="#HelveticaNeue-Medium-13" transform="translate(111.1875 0)"/>
    </g>
   </g>
   <g id="line2d_31">
    <path d="M 57.385434 247.950713 
L 66.828574 247.506362 
L 74.173238 246.951023 
L 80.468664 246.266238 
L 85.714853 245.502633 
L 90.961041 244.519715 
L 95.157992 243.54406 
L 99.354943 242.371598 
L 103.551894 240.974045 
L 107.748845 239.321685 
L 111.945796 237.383887 
L 116.142747 235.129758 
L 119.29046 233.213241 
L 122.438173 231.089304 
L 125.585886 228.746249 
L 128.733599 226.173273 
L 131.881312 223.360719 
L 135.029025 220.300319 
L 138.176739 216.985442 
L 141.324452 213.411325 
L 144.472165 209.575292 
L 148.669116 204.052833 
L 152.866067 198.070249 
L 157.063018 191.641713 
L 161.259968 184.789951 
L 165.456919 177.546267 
L 170.703108 168.001646 
L 175.949297 158.001398 
L 183.293961 143.448576 
L 205.327953 99.260619 
L 210.574141 89.368802 
L 215.82033 79.95881 
L 220.017281 72.838549 
L 224.214232 66.121314 
L 228.411183 59.835637 
L 232.608133 54.001448 
L 236.805084 48.63019 
L 239.952798 44.90784 
L 243.100511 41.446516 
L 246.248224 38.242612 
L 249.395937 35.290528 
L 252.54365 32.582894 
L 255.691363 30.110808 
L 258.839076 27.864089 
L 261.98679 25.831514 
L 265.134503 24.001072 
L 269.331454 21.853125 
L 273.528405 20.011485 
L 277.725355 18.445264 
L 281.922306 17.124065 
L 286.119257 16.018586 
L 291.365446 14.898033 
L 296.611634 14.021508 
L 302.907061 13.229557 
L 309.202487 12.659137 
L 316.547151 12.20151 
L 325.990291 11.840118 
L 338.581143 11.596793 
L 358.51666 11.465554 
L 410.978546 11.431371 
L 476.031285 11.431132 
L 476.031285 11.431132 
" clip-path="url(#p71fee232f1)" style="fill: none; stroke: #004f80; stroke-width: 2; stroke-linecap: round"/>
   </g>
   <g id="text_21">
    <!-- 250 -->
    <g style="fill: #004f80" transform="translate(181.208615 105.295472) scale(0.1 -0.1)">
     <defs>
      <path id="HelveticaNeue-Medium-15" d="M 3309 0 
L 250 0 
Q 256 557 518 973 
Q 781 1389 1235 1696 
Q 1453 1856 1689 2006 
Q 1926 2157 2124 2329 
Q 2323 2502 2451 2704 
Q 2579 2906 2586 3168 
Q 2586 3290 2557 3427 
Q 2528 3565 2445 3683 
Q 2362 3802 2214 3882 
Q 2067 3962 1830 3962 
Q 1613 3962 1469 3875 
Q 1325 3789 1238 3638 
Q 1152 3488 1110 3283 
Q 1069 3078 1062 2842 
L 333 2842 
Q 333 3213 432 3529 
Q 531 3846 729 4076 
Q 928 4307 1213 4438 
Q 1498 4570 1875 4570 
Q 2285 4570 2560 4435 
Q 2835 4301 3004 4096 
Q 3174 3891 3244 3651 
Q 3315 3411 3315 3194 
Q 3315 2925 3232 2707 
Q 3149 2490 3008 2307 
Q 2867 2125 2688 1971 
Q 2509 1818 2317 1683 
Q 2125 1549 1933 1427 
Q 1741 1306 1577 1184 
Q 1414 1062 1292 931 
Q 1171 800 1126 653 
L 3309 653 
L 3309 0 
z
" transform="scale(0.015625)"/>
     </defs>
     <use xlink:href="#HelveticaNeue-Medium-15"/>
     <use xlink:href="#HelveticaNeue-Medium-18" transform="translate(55.59375 0)"/>
     <use xlink:href="#HelveticaNeue-Medium-13" transform="translate(111.1875 0)"/>
    </g>
   </g>
  </g>
 </g>
 <defs>
  <clipPath id="p71fee232f1">
   <rect x="53.896719" y="4.32" width="425.623281" height="251.26"/>
  </clipPath>
 </defs>
</svg>
